# xmcd
#
# Track frame offsets: 
#        150
#        27001
#        42664
#        57419
#        75485
#        93100
#        109805
#        127707
#        144040
#        158691
#
# Disc length: 2274 seconds
#
# Revision: 4
# Processed by: cddbd v1.5.2PL0 Copyright (c) Steve Scherf et al.
# Submitted via: ExactAudioCopy v0.99pb4
#
DISCID=6d08e00a
DTITLE=Shirley Brown - Woman To Woman
DYEAR=1975
DGENRE=R&B/Soul
TTITLE0=It Ain't No Fun
TTITLE1=As Long As You Love Me
TTITLE2=Stay With Me
TTITLE3=I've Got To Go On Without You
TTITLE4=Woman To Woman
TTITLE5=So Glad To Have You
TTITLE6=Passion
TTITLE7=I Can't Give You Up
TTITLE8=I Need You Tonight
TTITLE9=Between You And Me
EXTD=© 2001\nLabel: Stax Records (Fantasy Inc.]\nSCD24 4135-2\n24 BIT 
EXTD=Remastered
EXTT0=
EXTT1=
EXTT2=
EXTT3=
EXTT4=
EXTT5=
EXTT6=
EXTT7=
EXTT8=
EXTT9=
PLAYORDER=
